# xmcd
#
# Track frame offsets: 
#        150
#        16210
#        36150
#        65720
#
# Disc length: 1686 seconds
#
# Revision: 2
# Processed by: cddbd v1.5.2PL0 Copyright (c) Steve Scherf et al.
# Submitted via: ExactAudioCopyFreeDBPlugin 1.0
#
DISCID=2e069404
DTITLE=Montell Jordan - Get It On Tonite [CDS)
DYEAR=2000
DGENRE=R&B
TTITLE0=Get It On Tonite (Radio Edit)
TTITLE1=This Is How We Do It (Puff Daddy Radio Mix)
TTITLE2=Something for da Honeyz (Radio Version)
TTITLE3=Video
EXTD=
EXTT0=
EXTT1=
EXTT2=
EXTT3=
PLAYORDER=
